<svg width="57" height="59" viewBox="0 0 57 59" fill="none" xmlns="http://www.w3.org/2000/svg">
<path d="M6.8697 49.0072L13.1091 44.6531L11.6788 36.6109L5.13989 35.661L5.04565 42.3206L6.8697 49.0072Z" stroke="#FBCC5C" stroke-width="0.5" stroke-miterlimit="10"/>
<path d="M12.7457 55.7178L18.1977 57.4317L24.2015 56.8705" stroke="#FBCC5C" stroke-width="0.5" stroke-miterlimit="10"/>
<path d="M8.724 23.7955L6.46582 29.762L12.7456 28.7885L8.724 23.7955Z" stroke="#FBCC5C" stroke-width="0.5" stroke-miterlimit="10"/>
<path d="M31.3632 46.4517L32.7934 52.9017L40.5271 46.0325L31.3632 46.4517Z" stroke="#FBCC5C" stroke-width="0.5" stroke-miterlimit="10"/>
<path d="M23.4745 50.1601L26.6582 44.0346" stroke="#FBCC5C" stroke-width="0.5" stroke-miterlimit="10"/>
<path d="M17.8342 36.9759L23.9828 37.5303L21.1054 42.6856L17.8342 36.9759Z" stroke="#FBCC5C" stroke-width="0.5" stroke-miterlimit="10"/>
<path d="M28.2567 21.284L23.111 26.2736L17.1072 22.9438" stroke="#FBCC5C" stroke-width="0.5" stroke-miterlimit="10"/>
<path d="M25.0665 30.9014L29.6939 34.1534" stroke="#FBCC5C" stroke-width="0.5" stroke-miterlimit="10"/>
<path d="M41.1731 29.0827L34.8462 31.6316L32.6991 40.377L40.6616 39.6806L44.7674 33.1393L41.1731 29.0827Z" stroke="#FBCC5C" stroke-width="0.5" stroke-miterlimit="10"/>
<path d="M26.8366 13.7217L25.5847 4.72281" stroke="#FBCC5C" stroke-width="0.5" stroke-miterlimit="10"/>
<path d="M46.0496 13.3564L51.8717 22.5784L51.4106 12.5586L48.0486 6.13568L46.0496 13.3564Z" stroke="#FBCC5C" stroke-width="0.5" stroke-miterlimit="10"/>
<path d="M22.1117 19.0695L15.5424 13.1367L11.679 18.2717L22.1117 19.0695Z" stroke="#FBCC5C" stroke-width="0.5" stroke-miterlimit="10"/>
<path d="M47.1904 25.8643L38.9216 24.2214L35.1154 20.3304L40.8096 14.8743L47.1904 25.8643Z" stroke="#FBCC5C" stroke-width="0.5" stroke-miterlimit="10"/>
<path d="M34.2709 1.56866L32.0598 9.25931L38.2353 9.65144L42.3209 2.20082L34.2709 1.56866Z" stroke="#FBCC5C" stroke-width="0.5" stroke-miterlimit="10"/>
<path opacity="0.25" d="M40.6615 39.6805L40.5269 46.0324" stroke="#76684C" stroke-width="0.5" stroke-miterlimit="10"/>
<path opacity="0.25" d="M26.8365 13.7214L31.9082 16.7605" stroke="#DA950C" stroke-width="0.5" stroke-miterlimit="10"/>
<path opacity="0.25" d="M49.9634 30.3569C43.9327 46.3467 29.7812 58.4388 18.3591 57.3671C6.93357 56.2955 1.78116 43.3313 6.8528 28.4098C11.9244 13.4882 24.8307 1.39619 37.2154 1.39957C49.6 1.40295 55.9942 14.3672 49.9634 30.3569Z" stroke="#DA950C" stroke-width="0.5" stroke-miterlimit="10"/>
<path opacity="0.25" d="M15.825 50.16H23.4745" stroke="#DA950C" stroke-width="0.5" stroke-miterlimit="10"/>
<path opacity="0.25" d="M12.7457 55.7175L15.8251 50.16L18.1977 57.4314" stroke="#DA950C" stroke-width="0.5" stroke-miterlimit="10"/>
<path opacity="0.25" d="M5.13977 35.6608L13.109 44.653" stroke="#DA950C" stroke-width="0.5" stroke-miterlimit="10"/>
<path opacity="0.25" d="M12.7457 28.7882L11.6788 36.6107" stroke="#DA950C" stroke-width="0.5" stroke-miterlimit="10"/>
<path opacity="0.25" d="M11.6788 18.2714L12.7457 28.7882" stroke="#DA950C" stroke-width="0.5" stroke-miterlimit="10"/>
<path opacity="0.25" d="M24.2014 56.8703L23.4745 50.16" stroke="#DA950C" stroke-width="0.5" stroke-miterlimit="10"/>
<path opacity="0.25" d="M23.4745 50.1598L31.363 46.4514" stroke="#DA950C" stroke-width="0.5" stroke-miterlimit="10"/>
<path opacity="0.25" d="M25.0663 30.901L32.0596 26.9221L28.2567 21.2834" stroke="#DA950C" stroke-width="0.5" stroke-miterlimit="10"/>
<path opacity="0.25" d="M17.8341 36.976L18.561 30.9012H25.0663" stroke="#DA950C" stroke-width="0.5" stroke-miterlimit="10"/>
<path opacity="0.25" d="M13.1091 44.653L21.1053 42.6856" stroke="#DA950C" stroke-width="0.5" stroke-miterlimit="10"/>
<path opacity="0.25" d="M34.8462 31.6313L40.6616 39.6803" stroke="#DA950C" stroke-width="0.5" stroke-miterlimit="10"/>
<path opacity="0.25" d="M31.9081 16.7605L35.1153 20.3303" stroke="#DA950C" stroke-width="0.5" stroke-miterlimit="10"/>
<path opacity="0.25" d="M15.825 50.1599L13.1091 44.653" stroke="#DA950C" stroke-width="0.5" stroke-miterlimit="10"/>
<path opacity="0.25" d="M40.5269 46.0322L32.699 40.3766L26.6581 44.0343" stroke="#DA950C" stroke-width="0.5" stroke-miterlimit="10"/>
<path opacity="0.25" d="M21.1052 42.6856L23.4745 50.1599" stroke="#DA950C" stroke-width="0.5" stroke-miterlimit="10"/>
<path opacity="0.25" d="M40.8097 14.8741L46.0496 13.3562" stroke="#DA950C" stroke-width="0.5" stroke-miterlimit="10"/>
<path opacity="0.25" d="M32.0595 9.25903L31.9081 16.7604" stroke="#DA950C" stroke-width="0.5" stroke-miterlimit="10"/>
<path opacity="0.25" d="M29.6939 34.1532L23.9828 37.5303" stroke="#DA950C" stroke-width="0.5" stroke-miterlimit="10"/>
<path opacity="0.25" d="M17.1072 22.9433L11.6788 18.2714" stroke="#DA950C" stroke-width="0.5" stroke-miterlimit="10"/>
<path opacity="0.25" d="M17.1162 22.934L22.0898 19.0777" stroke="#DA950C" stroke-width="0.5" stroke-miterlimit="10"/>
<path opacity="0.25" d="M28.2568 21.2834L22.1116 19.0692" stroke="#DA950C" stroke-width="0.5" stroke-miterlimit="10"/>
<path opacity="0.25" d="M11.6788 36.6106L17.8341 36.9757" stroke="#DA950C" stroke-width="0.5" stroke-miterlimit="10"/>
<path opacity="0.25" d="M12.7457 28.7882L18.5611 30.901" stroke="#DA950C" stroke-width="0.5" stroke-miterlimit="10"/>
<path opacity="0.25" d="M12.7457 28.7883L17.1073 22.9434" stroke="#DA950C" stroke-width="0.5" stroke-miterlimit="10"/>
<path opacity="0.25" d="M29.6937 34.1531L34.8461 31.6313" stroke="#DA950C" stroke-width="0.5" stroke-miterlimit="10"/>
<path opacity="0.25" d="M23.9828 37.5304L32.6992 40.3768" stroke="#DA950C" stroke-width="0.5" stroke-miterlimit="10"/>
<path opacity="0.25" d="M21.0537 42.6842L26.5972 44.0391" stroke="#DA950C" stroke-width="0.5" stroke-miterlimit="10"/>
<path opacity="0.25" d="M26.7527 44.039L31.4155 46.4361" stroke="#DA950C" stroke-width="0.5" stroke-miterlimit="10"/>
<path opacity="0.25" d="M32.7107 40.3912L31.3636 46.4362" stroke="#DA950C" stroke-width="0.5" stroke-miterlimit="10"/>
<path opacity="0.25" d="M38.9216 24.221L32.0596 26.9221" stroke="#DA950C" stroke-width="0.5" stroke-miterlimit="10"/>
<path opacity="0.25" d="M49.6135 31.2661L44.7673 33.1389L46.0866 38.3922" stroke="#DA950C" stroke-width="0.5" stroke-miterlimit="10"/>
<path opacity="0.25" d="M38.9215 24.221L41.173 29.0822" stroke="#DA950C" stroke-width="0.5" stroke-miterlimit="10"/>
<path opacity="0.25" d="M51.8718 22.5784L47.1906 25.8643L49.6136 31.2663" stroke="#DA950C" stroke-width="0.5" stroke-miterlimit="10"/>
<path opacity="0.25" d="M34.2708 1.56851L38.2352 9.65129" stroke="#DA950C" stroke-width="0.5" stroke-miterlimit="10"/>
<path opacity="0.25" d="M26.8366 13.7214L22.1116 19.0694" stroke="#DA950C" stroke-width="0.5" stroke-miterlimit="10"/>
<path opacity="0.25" d="M35.1154 20.3303L28.2567 21.2836" stroke="#DA950C" stroke-width="0.5" stroke-miterlimit="10"/>
<path opacity="0.25" d="M19.1096 9.47913L26.8366 13.7217" stroke="#DA950C" stroke-width="0.5" stroke-miterlimit="10"/>
<path opacity="0.25" d="M26.8365 13.7213L32.0596 9.25903" stroke="#DA950C" stroke-width="0.5" stroke-miterlimit="10"/>
<path opacity="0.25" d="M38.2351 9.6514L48.0486 6.13568" stroke="#DA950C" stroke-width="0.5" stroke-miterlimit="10"/>
<path opacity="0.25" d="M38.2351 9.65143L40.8096 14.8743" stroke="#DA950C" stroke-width="0.5" stroke-miterlimit="10"/>
<path opacity="0.25" d="M23.111 26.2732L25.0663 30.9011" stroke="#DA950C" stroke-width="0.5" stroke-miterlimit="10"/>
<path opacity="0.25" d="M38.9215 24.2212L40.8095 14.8741" stroke="#DA950C" stroke-width="0.5" stroke-miterlimit="10"/>
<path d="M8.72406 24.1605C8.92479 24.1605 9.08752 23.9971 9.08752 23.7955C9.08752 23.5938 8.92479 23.4304 8.72406 23.4304C8.52332 23.4304 8.3606 23.5938 8.3606 23.7955C8.3606 23.9971 8.52332 24.1605 8.72406 24.1605Z" fill="#FBCC5C" stroke="#FBCC5C" stroke-width="0.5"/>
<path d="M12.7457 29.1537C12.9464 29.1537 13.1091 28.9902 13.1091 28.7886C13.1091 28.587 12.9464 28.4235 12.7457 28.4235C12.5449 28.4235 12.3822 28.587 12.3822 28.7886C12.3822 28.9902 12.5449 29.1537 12.7457 29.1537Z" fill="#FBCC5C" stroke="#FBCC5C" stroke-width="0.5"/>
<path d="M6.46576 30.1272C6.66649 30.1272 6.82922 29.9637 6.82922 29.7621C6.82922 29.5604 6.66649 29.397 6.46576 29.397C6.26502 29.397 6.10229 29.5604 6.10229 29.7621C6.10229 29.9637 6.26502 30.1272 6.46576 30.1272Z" fill="#FBCC5C" stroke="#FBCC5C" stroke-width="0.5"/>
<path d="M11.6789 36.9761C11.8796 36.9761 12.0424 36.8126 12.0424 36.611C12.0424 36.4093 11.8796 36.2459 11.6789 36.2459C11.4782 36.2459 11.3154 36.4093 11.3154 36.611C11.3154 36.8126 11.4782 36.9761 11.6789 36.9761Z" fill="#FBCC5C" stroke="#FBCC5C" stroke-width="0.5"/>
<path d="M13.1091 45.0183C13.3098 45.0183 13.4725 44.8549 13.4725 44.6532C13.4725 44.4516 13.3098 44.2881 13.1091 44.2881C12.9083 44.2881 12.7456 44.4516 12.7456 44.6532C12.7456 44.8549 12.9083 45.0183 13.1091 45.0183Z" fill="#FBCC5C" stroke="#FBCC5C" stroke-width="0.5"/>
<path d="M15.8249 50.5252C16.0256 50.5252 16.1883 50.3617 16.1883 50.1601C16.1883 49.9585 16.0256 49.795 15.8249 49.795C15.6242 49.795 15.4614 49.9585 15.4614 50.1601C15.4614 50.3617 15.6242 50.5252 15.8249 50.5252Z" fill="#FBCC5C" stroke="#FBCC5C" stroke-width="0.5"/>
<path d="M23.4744 50.5252C23.6752 50.5252 23.8379 50.3617 23.8379 50.1601C23.8379 49.9585 23.6752 49.795 23.4744 49.795C23.2737 49.795 23.111 49.9585 23.111 50.1601C23.111 50.3617 23.2737 50.5252 23.4744 50.5252Z" fill="#FBCC5C" stroke="#FBCC5C" stroke-width="0.5"/>
<path d="M26.6583 44.3997C26.859 44.3997 27.0217 44.2363 27.0217 44.0346C27.0217 43.833 26.859 43.6695 26.6583 43.6695C26.4575 43.6695 26.2948 43.833 26.2948 44.0346C26.2948 44.2363 26.4575 44.3997 26.6583 44.3997Z" fill="#FBCC5C" stroke="#FBCC5C" stroke-width="0.5"/>
<path d="M40.5269 46.3976C40.7276 46.3976 40.8904 46.2341 40.8904 46.0325C40.8904 45.8308 40.7276 45.6674 40.5269 45.6674C40.3262 45.6674 40.1635 45.8308 40.1635 46.0325C40.1635 46.2341 40.3262 46.3976 40.5269 46.3976Z" fill="#FBCC5C" stroke="#FBCC5C" stroke-width="0.5"/>
<path d="M31.363 46.8164C31.5637 46.8164 31.7264 46.653 31.7264 46.4513C31.7264 46.2497 31.5637 46.0862 31.363 46.0862C31.1622 46.0862 30.9995 46.2497 30.9995 46.4513C30.9995 46.653 31.1622 46.8164 31.363 46.8164Z" fill="#FBCC5C" stroke="#FBCC5C" stroke-width="0.5"/>
<path d="M46.0866 38.7576C46.2873 38.7576 46.4501 38.5942 46.4501 38.3925C46.4501 38.1909 46.2873 38.0274 46.0866 38.0274C45.8859 38.0274 45.7231 38.1909 45.7231 38.3925C45.7231 38.5942 45.8859 38.7576 46.0866 38.7576Z" fill="#FBCC5C" stroke="#FBCC5C" stroke-width="0.5"/>
<path d="M49.6136 31.6314C49.8143 31.6314 49.977 31.468 49.977 31.2663C49.977 31.0647 49.8143 30.9012 49.6136 30.9012C49.4128 30.9012 49.2501 31.0647 49.2501 31.2663C49.2501 31.468 49.4128 31.6314 49.6136 31.6314Z" fill="#FBCC5C" stroke="#FBCC5C" stroke-width="0.5"/>
<path d="M51.8716 22.9435C52.0724 22.9435 52.2351 22.78 52.2351 22.5784C52.2351 22.3768 52.0724 22.2133 51.8716 22.2133C51.6709 22.2133 51.5082 22.3768 51.5082 22.5784C51.5082 22.78 51.6709 22.9435 51.8716 22.9435Z" fill="#FBCC5C" stroke="#FBCC5C" stroke-width="0.5"/>
<path d="M46.0495 13.7215C46.2502 13.7215 46.413 13.558 46.413 13.3564C46.413 13.1548 46.2502 12.9913 46.0495 12.9913C45.8488 12.9913 45.686 13.1548 45.686 13.3564C45.686 13.558 45.8488 13.7215 46.0495 13.7215Z" fill="#FBCC5C" stroke="#FBCC5C" stroke-width="0.5"/>
<path d="M51.4105 12.9239C51.6112 12.9239 51.7739 12.7605 51.7739 12.5588C51.7739 12.3572 51.6112 12.1937 51.4105 12.1937C51.2097 12.1937 51.047 12.3572 51.047 12.5588C51.047 12.7605 51.2097 12.9239 51.4105 12.9239Z" fill="#FBCC5C" stroke="#FBCC5C" stroke-width="0.5"/>
<path d="M48.0485 6.50076C48.2493 6.50076 48.412 6.3373 48.412 6.13566C48.412 5.93403 48.2493 5.77057 48.0485 5.77057C47.8478 5.77057 47.6851 5.93403 47.6851 6.13566C47.6851 6.3373 47.8478 6.50076 48.0485 6.50076Z" fill="#FBCC5C" stroke="#FBCC5C" stroke-width="0.5"/>
<path d="M38.2352 10.0167C38.4359 10.0167 38.5986 9.85323 38.5986 9.65159C38.5986 9.44996 38.4359 9.2865 38.2352 9.2865C38.0344 9.2865 37.8717 9.44996 37.8717 9.65159C37.8717 9.85323 38.0344 10.0167 38.2352 10.0167Z" fill="#FBCC5C" stroke="#FBCC5C" stroke-width="0.5"/>
<path d="M34.2706 1.93374C34.4713 1.93374 34.634 1.77028 34.634 1.56865C34.634 1.36701 34.4713 1.20355 34.2706 1.20355C34.0698 1.20355 33.9071 1.36701 33.9071 1.56865C33.9071 1.77028 34.0698 1.93374 34.2706 1.93374Z" fill="#FBCC5C" stroke="#FBCC5C" stroke-width="0.5"/>
<path d="M32.0596 9.62447C32.2604 9.62447 32.4231 9.46102 32.4231 9.25938C32.4231 9.05775 32.2604 8.89429 32.0596 8.89429C31.8589 8.89429 31.6962 9.05775 31.6962 9.25938C31.6962 9.46102 31.8589 9.62447 32.0596 9.62447Z" fill="#FBCC5C" stroke="#FBCC5C" stroke-width="0.5"/>
<path d="M25.5845 5.08789C25.7853 5.08789 25.948 4.92443 25.948 4.72279C25.948 4.52115 25.7853 4.3577 25.5845 4.3577C25.3838 4.3577 25.2211 4.52115 25.2211 4.72279C25.2211 4.92443 25.3838 5.08789 25.5845 5.08789Z" fill="#FBCC5C" stroke="#FBCC5C" stroke-width="0.5"/>
<path d="M19.1096 9.84417C19.3103 9.84417 19.473 9.68071 19.473 9.47908C19.473 9.27744 19.3103 9.11398 19.1096 9.11398C18.9088 9.11398 18.7461 9.27744 18.7461 9.47908C18.7461 9.68071 18.9088 9.84417 19.1096 9.84417Z" fill="#FBCC5C" stroke="#FBCC5C" stroke-width="0.5"/>
<path d="M22.1115 19.4347C22.3122 19.4347 22.475 19.2712 22.475 19.0696C22.475 18.868 22.3122 18.7045 22.1115 18.7045C21.9108 18.7045 21.748 18.868 21.748 19.0696C21.748 19.2712 21.9108 19.4347 22.1115 19.4347Z" fill="#FBCC5C" stroke="#FBCC5C" stroke-width="0.5"/>
<path d="M18.5612 31.2664C18.7619 31.2664 18.9247 31.103 18.9247 30.9014C18.9247 30.6997 18.7619 30.5363 18.5612 30.5363C18.3605 30.5363 18.1978 30.6997 18.1978 30.9014C18.1978 31.103 18.3605 31.2664 18.5612 31.2664Z" fill="#FBCC5C" stroke="#FBCC5C" stroke-width="0.5"/>
<path d="M17.8342 37.341C18.0349 37.341 18.1976 37.1776 18.1976 36.9759C18.1976 36.7743 18.0349 36.6108 17.8342 36.6108C17.6334 36.6108 17.4707 36.7743 17.4707 36.9759C17.4707 37.1776 17.6334 37.341 17.8342 37.341Z" fill="#FBCC5C" stroke="#FBCC5C" stroke-width="0.5"/>
<path d="M21.1053 43.0508C21.306 43.0508 21.4687 42.8874 21.4687 42.6857C21.4687 42.4841 21.306 42.3206 21.1053 42.3206C20.9045 42.3206 20.7418 42.4841 20.7418 42.6857C20.7418 42.8874 20.9045 43.0508 21.1053 43.0508Z" fill="#FBCC5C" stroke="#FBCC5C" stroke-width="0.5"/>
<path d="M23.9827 37.8954C24.1835 37.8954 24.3462 37.732 24.3462 37.5303C24.3462 37.3287 24.1835 37.1653 23.9827 37.1653C23.782 37.1653 23.6193 37.3287 23.6193 37.5303C23.6193 37.732 23.782 37.8954 23.9827 37.8954Z" fill="#FBCC5C" stroke="#FBCC5C" stroke-width="0.5"/>
<path d="M26.7961 14.0867C26.9968 14.0867 27.1596 13.9232 27.1596 13.7216C27.1596 13.5199 26.9968 13.3565 26.7961 13.3565C26.5953 13.3565 26.4326 13.5199 26.4326 13.7216C26.4326 13.9232 26.5953 14.0867 26.7961 14.0867Z" fill="#FBCC5C" stroke="#FBCC5C" stroke-width="0.5"/>
<path d="M15.5421 13.5018C15.7428 13.5018 15.9055 13.3384 15.9055 13.1367C15.9055 12.9351 15.7428 12.7716 15.5421 12.7716C15.3413 12.7716 15.1786 12.9351 15.1786 13.1367C15.1786 13.3384 15.3413 13.5018 15.5421 13.5018Z" fill="#FBCC5C" stroke="#FBCC5C" stroke-width="0.5"/>
<path d="M11.6789 18.6369C11.8796 18.6369 12.0424 18.4734 12.0424 18.2718C12.0424 18.0701 11.8796 17.9067 11.6789 17.9067C11.4782 17.9067 11.3154 18.0701 11.3154 18.2718C11.3154 18.4734 11.4782 18.6369 11.6789 18.6369Z" fill="#FBCC5C" stroke="#FBCC5C" stroke-width="0.5"/>
<path d="M42.3206 2.56579C42.5213 2.56579 42.6841 2.40233 42.6841 2.2007C42.6841 1.99906 42.5213 1.8356 42.3206 1.8356C42.1199 1.8356 41.9572 1.99906 41.9572 2.2007C41.9572 2.40233 42.1199 2.56579 42.3206 2.56579Z" fill="#FBCC5C" stroke="#FBCC5C" stroke-width="0.5"/>
<path d="M18.1976 57.7963C18.3983 57.7963 18.561 57.6329 18.561 57.4312C18.561 57.2296 18.3983 57.0661 18.1976 57.0661C17.9968 57.0661 17.8341 57.2296 17.8341 57.4312C17.8341 57.6329 17.9968 57.7963 18.1976 57.7963Z" fill="#FBCC5C" stroke="#FBCC5C" stroke-width="0.5"/>
<path d="M24.2015 57.2354C24.4022 57.2354 24.5649 57.0719 24.5649 56.8703C24.5649 56.6686 24.4022 56.5052 24.2015 56.5052C24.0007 56.5052 23.838 56.6686 23.838 56.8703C23.838 57.0719 24.0007 57.2354 24.2015 57.2354Z" fill="#FBCC5C" stroke="#FBCC5C" stroke-width="0.5"/>
<path d="M32.7934 53.2664C32.9941 53.2664 33.1568 53.103 33.1568 52.9013C33.1568 52.6997 32.9941 52.5363 32.7934 52.5363C32.5927 52.5363 32.4299 52.6997 32.4299 52.9013C32.4299 53.103 32.5927 53.2664 32.7934 53.2664Z" fill="#FBCC5C" stroke="#FBCC5C" stroke-width="0.5"/>
<path d="M5.04559 42.6857C5.24633 42.6857 5.40905 42.5222 5.40905 42.3206C5.40905 42.1189 5.24633 41.9555 5.04559 41.9555C4.84486 41.9555 4.68213 42.1189 4.68213 42.3206C4.68213 42.5222 4.84486 42.6857 5.04559 42.6857Z" fill="#FBCC5C" stroke="#FBCC5C" stroke-width="0.5"/>
<path d="M6.86969 49.3723C7.07042 49.3723 7.23315 49.2088 7.23315 49.0072C7.23315 48.8056 7.07042 48.6421 6.86969 48.6421C6.66895 48.6421 6.50623 48.8056 6.50623 49.0072C6.50623 49.2088 6.66895 49.3723 6.86969 49.3723Z" fill="#FBCC5C" stroke="#FBCC5C" stroke-width="0.5"/>
<path d="M12.7457 56.0828C12.9464 56.0828 13.1091 55.9194 13.1091 55.7178C13.1091 55.5161 12.9464 55.3527 12.7457 55.3527C12.5449 55.3527 12.3822 55.5161 12.3822 55.7178C12.3822 55.9194 12.5449 56.0828 12.7457 56.0828Z" fill="#FBCC5C" stroke="#FBCC5C" stroke-width="0.5"/>
<path d="M5.13983 36.0261C5.34056 36.0261 5.50329 35.8626 5.50329 35.661C5.50329 35.4593 5.34056 35.2959 5.13983 35.2959C4.93909 35.2959 4.77637 35.4593 4.77637 35.661C4.77637 35.8626 4.93909 36.0261 5.13983 36.0261Z" fill="#FBCC5C" stroke="#FBCC5C" stroke-width="0.5"/>
<path d="M17.1071 23.3089C17.3078 23.3089 17.4706 23.1454 17.4706 22.9438C17.4706 22.7421 17.3078 22.5787 17.1071 22.5787C16.9064 22.5787 16.7437 22.7421 16.7437 22.9438C16.7437 23.1454 16.9064 23.3089 17.1071 23.3089Z" fill="#FBCC5C" stroke="#FBCC5C" stroke-width="0.5"/>
<path d="M25.0663 31.2664C25.2671 31.2664 25.4298 31.103 25.4298 30.9014C25.4298 30.6997 25.2671 30.5363 25.0663 30.5363C24.8656 30.5363 24.7029 30.6997 24.7029 30.9014C24.7029 31.103 24.8656 31.2664 25.0663 31.2664Z" fill="#FBCC5C" stroke="#FBCC5C" stroke-width="0.5"/>
<path d="M29.6938 34.5184C29.8945 34.5184 30.0572 34.355 30.0572 34.1534C30.0572 33.9517 29.8945 33.7883 29.6938 33.7883C29.4931 33.7883 29.3303 33.9517 29.3303 34.1534C29.3303 34.355 29.4931 34.5184 29.6938 34.5184Z" fill="#FBCC5C" stroke="#FBCC5C" stroke-width="0.5"/>
<path d="M28.2568 21.6491C28.4575 21.6491 28.6202 21.4856 28.6202 21.284C28.6202 21.0823 28.4575 20.9189 28.2568 20.9189C28.056 20.9189 27.8933 21.0823 27.8933 21.284C27.8933 21.4856 28.056 21.6491 28.2568 21.6491Z" fill="#FBCC5C" stroke="#FBCC5C" stroke-width="0.5"/>
<path d="M23.111 26.6385C23.3118 26.6385 23.4745 26.475 23.4745 26.2734C23.4745 26.0717 23.3118 25.9083 23.111 25.9083C22.9103 25.9083 22.7476 26.0717 22.7476 26.2734C22.7476 26.475 22.9103 26.6385 23.111 26.6385Z" fill="#FBCC5C" stroke="#FBCC5C" stroke-width="0.5"/>
<path d="M41.1732 29.4478C41.3739 29.4478 41.5366 29.2843 41.5366 29.0827C41.5366 28.881 41.3739 28.7176 41.1732 28.7176C40.9724 28.7176 40.8097 28.881 40.8097 29.0827C40.8097 29.2843 40.9724 29.4478 41.1732 29.4478Z" fill="#FBCC5C" stroke="#FBCC5C" stroke-width="0.5"/>
<path d="M44.7673 33.5044C44.968 33.5044 45.1307 33.3409 45.1307 33.1393C45.1307 32.9376 44.968 32.7742 44.7673 32.7742C44.5665 32.7742 44.4038 32.9376 44.4038 33.1393C44.4038 33.3409 44.5665 33.5044 44.7673 33.5044Z" fill="#FBCC5C" stroke="#FBCC5C" stroke-width="0.5"/>
<path d="M40.6616 40.0457C40.8623 40.0457 41.025 39.8823 41.025 39.6806C41.025 39.479 40.8623 39.3155 40.6616 39.3155C40.4608 39.3155 40.2981 39.479 40.2981 39.6806C40.2981 39.8823 40.4608 40.0457 40.6616 40.0457Z" fill="#FBCC5C" stroke="#FBCC5C" stroke-width="0.5"/>
<path d="M32.699 40.7756C32.8998 40.7756 33.0625 40.6121 33.0625 40.4105C33.0625 40.2089 32.8998 40.0454 32.699 40.0454C32.4983 40.0454 32.3356 40.2089 32.3356 40.4105C32.3356 40.6121 32.4983 40.7756 32.699 40.7756Z" fill="#FBCC5C" stroke="#FBCC5C" stroke-width="0.5"/>
<path d="M34.8461 31.9965C35.0469 31.9965 35.2096 31.8331 35.2096 31.6315C35.2096 31.4298 35.0469 31.2664 34.8461 31.2664C34.6454 31.2664 34.4827 31.4298 34.4827 31.6315C34.4827 31.8331 34.6454 31.9965 34.8461 31.9965Z" fill="#FBCC5C" stroke="#FBCC5C" stroke-width="0.5"/>
<path d="M40.8096 15.2393C41.0104 15.2393 41.1731 15.0759 41.1731 14.8742C41.1731 14.6726 41.0104 14.5092 40.8096 14.5092C40.6089 14.5092 40.4462 14.6726 40.4462 14.8742C40.4462 15.0759 40.6089 15.2393 40.8096 15.2393Z" fill="#FBCC5C" stroke="#FBCC5C" stroke-width="0.5"/>
<path d="M35.1153 20.6956C35.316 20.6956 35.4788 20.5321 35.4788 20.3305C35.4788 20.1288 35.316 19.9654 35.1153 19.9654C34.9146 19.9654 34.7518 20.1288 34.7518 20.3305C34.7518 20.5321 34.9146 20.6956 35.1153 20.6956Z" fill="#FBCC5C" stroke="#FBCC5C" stroke-width="0.5"/>
<path d="M31.908 17.1257C32.1087 17.1257 32.2715 16.9623 32.2715 16.7606C32.2715 16.559 32.1087 16.3955 31.908 16.3955C31.7073 16.3955 31.5446 16.559 31.5446 16.7606C31.5446 16.9623 31.7073 17.1257 31.908 17.1257Z" fill="#FBCC5C" stroke="#FBCC5C" stroke-width="0.5"/>
<path d="M32.0596 27.2876C32.2604 27.2876 32.4231 27.1242 32.4231 26.9225C32.4231 26.7209 32.2604 26.5574 32.0596 26.5574C31.8589 26.5574 31.6962 26.7209 31.6962 26.9225C31.6962 27.1242 31.8589 27.2876 32.0596 27.2876Z" fill="#FBCC5C" stroke="#FBCC5C" stroke-width="0.5"/>
<path d="M38.9217 24.5865C39.1224 24.5865 39.2851 24.423 39.2851 24.2214C39.2851 24.0197 39.1224 23.8563 38.9217 23.8563C38.721 23.8563 38.5582 24.0197 38.5582 24.2214C38.5582 24.423 38.721 24.5865 38.9217 24.5865Z" fill="#FBCC5C" stroke="#FBCC5C" stroke-width="0.5"/>
<path d="M47.1905 26.2293C47.3912 26.2293 47.5539 26.0658 47.5539 25.8642C47.5539 25.6626 47.3912 25.4991 47.1905 25.4991C46.9898 25.4991 46.827 25.6626 46.827 25.8642C46.827 26.0658 46.9898 26.2293 47.1905 26.2293Z" fill="#FBCC5C" stroke="#FBCC5C" stroke-width="0.5"/>
</svg>
